# xmcd CD database file
#
# Track frame offsets:
#	150
#	11865
#	35560
#	46967
#	61777
#	75410
#	88590
#	101820
#	118322
#	133317
#	146575
#	160962
#	170915
#	184110
#	197720
#
# Disc length: 2812 seconds
#
# Revision: 0
# Processed by: cddbd v1.5.2PL0 Copyright (c) Steve Scherf et al.
# Submitted via: CDex 1.70beta3
#
DISCID=d80afa0f
DTITLE=Various Artist - Snowflakes (Japanese Edition)
DYEAR=1999
DGENRE=Jazz
TTITLE0=No Problems Anymore - Frank Pleyer Orchestra
TTITLE1=Stone Ground Seven - The Singers Unlimited
TTITLE2=Young Sound - Heinz Kiessling Orchestra
TTITLE3=Maghribinia 4+5 - Horst Jankowski Orchestra
TTITLE4=Lamento - Nelson Riddle Orchestra
TTITLE5=Wave's Lament -  The Third Wave
TTITLE6=Fanatico - Pete Jacques Orchestra and Singers
TTITLE7=Uptown Dance - Nelson Riddle Orchestra
TTITLE8=Bernardo - Perry London Orchestra
TTITLE9=Wenn Es Nacht Wird In Paris - Pete Jacques Orchestra
TTITLE10=Stormy - The Third Wave
TTITLE11=Round Trip To Rio - Pete Jacques Orchestra and Singers
TTITLE12=Claudia - Francy Boland and Orchestra
TTITLE13=By The Willow Tree - Jonny Teupen and The Gunter Kallmann Singers
TTITLE14=Little Racer - Horst Jankowski Orchestra
EXTD=YEAR: 1999
EXTT0=
EXTT1=
EXTT2=
EXTT3=
EXTT4=
EXTT5=
EXTT6=
EXTT7=
EXTT8=
EXTT9=
EXTT10=
EXTT11=
EXTT12=
EXTT13=
EXTT14=
PLAYORDER=
